# xmcd
#
# Track frame offsets:
#	150
#	14116
#	28629
#	39122
#	52368
#	67924
#	80322
#	91858
#	106589
#	118740
#	136742
#	150663
#	160429
#	172932
#	187393
#	200688
#	215989
#	229917
#	241565
#	256048
#
# Disc length: 3575 seconds
#
# Revision: 1
# Processed by: cddbd v1.5.2PL0 Copyright (c) Steve Scherf et al.
# Submitted via: EasyCDDAExtractor 16.0.1.1
#
DISCID=0d0df514
DTITLE=Linda Buell - Linda Goes To Nashville -80 and Keeps It Country -81
DYEAR=1981
DGENRE=Country
TTITLE0=Don't Touch Me
TTITLE1=If You Were Mine To Lose
TTITLE2=Silver Threads And Golden Needles
TTITLE3=Texas When I Die
TTITLE4=Right Or Wrong
TTITLE5=Diggy Liggy Lie  Diggy Liggy Lo
TTITLE6=You Ain't Woman Enough
TTITLE7=Midnight Angel
TTITLE8=Heaven Is Just A Sin Away
TTITLE9=Farewell Party
TTITLE10=Don't Stop That Song
TTITLE11=Magic Key
TTITLE12=Lying Too Long In The Arms Of A Stranger
TTITLE13=Big Horn Mountain Breakdown
TTITLE14=Chicken Song (In The Mood)
TTITLE15=Couldn't Do Nothin' Right
TTITLE16=Wild Side Of Life
TTITLE17=I'm Gonna Sing
TTITLE18=Blue Kentucky girl
TTITLE19=Rainy Days and Stormy Nights
EXTD=
EXTT0=
EXTT1=
EXTT2=
EXTT3=
EXTT4=
EXTT5=
EXTT6=
EXTT7=
EXTT8=
EXTT9=
EXTT10=
EXTT11=
EXTT12=
EXTT13=
EXTT14=
EXTT15=
EXTT16=
EXTT17=
EXTT18=
EXTT19=
PLAYORDER=
